<?xml version="1.0" standalone="no"?>
<!DOCTYPE svg PUBLIC "-//W3C//DTD SVG 20010904//EN"
 "http://www.w3.org/TR/2001/REC-SVG-20010904/DTD/svg10.dtd">
<svg version="1.0" xmlns="http://www.w3.org/2000/svg"
 width="171.000000pt" height="213.000000pt" viewBox="0 0 171.000000 213.000000"
 preserveAspectRatio="xMidYMid meet">
<metadata>
Created by potrace 1.16, written by Peter Selinger 2001-2019
</metadata>
<g transform="translate(0.000000,213.000000) scale(0.100000,-0.100000)"
fill="#000000" stroke="none">
<path d="M978 1940 c-92 -28 -158 -115 -158 -210 0 -71 26 -127 80 -173 88
-75 214 -68 295 17 89 92 87 219 -4 307 -62 60 -139 81 -213 59z m145 -96 c82
-61 74 -194 -15 -240 -127 -66 -258 69 -190 195 37 69 142 92 205 45z"/>
<path d="M555 1837 c-77 -35 -121 -133 -95 -211 15 -47 68 -103 106 -111 62
-14 56 -20 -22 -23 -75 -3 -83 -5 -110 -33 l-29 -30 -3 -183 c-5 -288 6 -306
186 -306 l102 0 0 -30 c0 -17 -5 -39 -12 -49 -19 -31 -3 -51 42 -51 36 0 40
-2 40 -25 0 -18 -5 -25 -19 -25 -45 0 -64 -61 -37 -122 6 -12 -26 -53 -128
-165 -104 -114 -136 -154 -136 -175 0 -21 6 -29 26 -34 23 -6 35 3 102 77 42
46 105 113 139 149 l63 65 0 -136 c0 -121 2 -138 19 -153 15 -14 24 -15 40 -7
27 15 31 33 34 179 l2 123 133 -150 c74 -83 140 -151 147 -151 29 0 45 13 45
37 0 17 -39 68 -133 173 l-133 150 4 64 4 65 -33 9 c-24 6 -34 14 -34 28 0 15
9 20 45 24 50 6 64 28 35 60 -9 10 -15 29 -13 42 3 22 7 23 114 28 111 5 129
11 161 50 7 8 13 30 13 48 0 17 3 32 8 32 4 0 19 -22 34 -50 23 -41 33 -50 64
-56 20 -4 49 -3 63 2 l26 9 3 229 c2 160 -1 233 -9 242 -12 14 -58 18 -95 8
-12 -3 -37 -27 -55 -52 l-34 -47 -6 44 c-4 31 -14 51 -33 68 -27 23 -29 23
-292 23 -245 0 -310 7 -220 24 45 9 103 66 116 116 19 71 -9 147 -72 193 -34
25 -121 33 -163 14z m110 -61 c77 -32 85 -137 15 -184 -46 -31 -94 -25 -132
18 -47 52 -36 123 25 160 38 24 47 24 92 6z"/>
</g>
</svg>
